# xmcd
#
# Track frame offsets: 
#        150
#        17322
#        29702
#        47855
#        62687
#        79762
#        93980
#        120695
#        133275
#        149400
#        161720
#        175652
#        188195
#        203660
#        219257
#        229972
#        244817
#        262282
#        273562
#        296102
#        305457
#
# Disc length: 4285 seconds
#
# Revision: 6
# Processed by: cddbd v1.5.2PL0 Copyright (c) Steve Scherf et al.
# Submitted via: ExactAudioCopyFreeDBPlugin 1.0
#
DISCID=4110bb15
DTITLE=Ella Fitzgerald - The Unique Ella Fitzgerald
DYEAR=1988
DGENRE=Jazz
TTITLE0=Too darn hot
TTITLE1=With a song in my heart
TTITLE2=I get a kick out of you
TTITLE3=Lover
TTITLE4=I didn't know what time it was
TTITLE5=It's all right with me
TTITLE6=Love for sale
TTITLE7=Where or when
TTITLE8=Let's do it (Let's fall in love)
TTITLE9=I've got you under my skin
TTITLE10=I can't get started
TTITLE11=Blue you
TTITLE12=Easy to love
TTITLE13=You took advantage of me
TTITLE14=You do something for me
TTITLE15=How high the moon
TTITLE16=So in love
TTITLE17=That old black magic
TTITLE18=I love Paris
TTITLE19=What is this thing called love
TTITLE20=Just one of those things
EXTD=
EXTT0=
EXTT1=
EXTT2=
EXTT3=
EXTT4=
EXTT5=
EXTT6=
EXTT7=
EXTT8=
EXTT9=
EXTT10=
EXTT11=
EXTT12=
EXTT13=
EXTT14=
EXTT15=
EXTT16=
EXTT17=
EXTT18=
EXTT19=
EXTT20=
PLAYORDER=
